<svg width="297" height="305" viewBox="0 0 297 305" fill="none" xmlns="http://www.w3.org/2000/svg">
<g clip-path="url(#clip0_1626_20061)">
<path d="M208.294 305H127.281C126.339 304.999 125.436 304.625 124.77 303.96C124.104 303.294 123.73 302.392 123.729 301.452V244.864C123.73 243.923 124.104 243.021 124.77 242.356C125.436 241.691 126.339 241.316 127.281 241.315H208.294C209.235 241.317 210.138 241.691 210.804 242.356C211.47 243.021 211.844 243.923 211.846 244.864V301.452C211.844 302.392 211.47 303.294 210.804 303.96C210.138 304.625 209.235 304.999 208.294 305Z" fill="#F2F2F2"/>
<path d="M75.9023 157.49C76.4454 156.795 76.8295 155.99 77.0276 155.131C77.2257 154.273 77.2328 153.381 77.0486 152.519C76.8644 151.657 76.4933 150.846 75.9614 150.143C75.4294 149.44 74.7497 148.862 73.97 148.45L73.4595 94.3145L63.332 98.9577L65.5596 151.314C64.9532 152.669 64.8652 154.198 65.3123 155.613C65.7594 157.028 66.7105 158.23 67.9854 158.992C69.2603 159.753 70.7703 160.02 72.2295 159.743C73.6886 159.467 74.9954 158.665 75.9023 157.49Z" fill="#9E616A"/>
<path d="M75.6296 80.6089C75.6296 80.6089 65.7778 75.8345 64.4154 84.8424C63.0529 93.8502 57.4487 117.294 57.4487 117.294L74.4545 116.093L75.6296 80.6089Z" fill="#9E616A"/>
<path d="M75.9023 157.49C76.4454 156.795 76.8295 155.99 77.0276 155.131C77.2257 154.273 77.2328 153.381 77.0486 152.519C76.8644 151.657 76.4933 150.846 75.9614 150.143C75.4294 149.44 74.7497 148.862 73.97 148.45L73.4595 94.3145L63.332 98.9577L65.5596 151.314C64.9532 152.669 64.8652 154.198 65.3123 155.613C65.7594 157.028 66.7105 158.23 67.9854 158.992C69.2603 159.753 70.7703 160.02 72.2295 159.743C73.6886 159.467 74.9954 158.665 75.9023 157.49Z" fill="#9E616A"/>
<path d="M75.6296 80.6089C75.6296 80.6089 65.7778 75.8345 64.4154 84.8424C63.0529 93.8502 57.4487 117.294 57.4487 117.294L74.4545 116.093L75.6296 80.6089Z" fill="#36397A"/>
<path d="M75.6296 80.6089C75.6296 80.6089 65.7778 75.8345 64.4154 84.8424C63.0529 93.8502 57.4487 117.294 57.4487 117.294L74.4545 116.093L75.6296 80.6089Z" fill="black" fill-opacity="0.2"/>
<path d="M47.1045 289.145C46.7067 289.163 46.3129 289.059 45.9765 288.846C45.64 288.633 45.3772 288.322 45.2236 287.955C45.07 287.588 45.033 287.183 45.1177 286.794C45.2023 286.405 45.4046 286.052 45.697 285.782C45.746 285.587 45.7811 285.448 45.8301 285.253C45.8126 285.211 45.7949 285.169 45.7772 285.127C45.3765 284.181 44.705 283.375 43.8471 282.809C42.9891 282.243 41.9831 281.944 40.9552 281.948C39.9273 281.951 38.9235 282.259 38.0698 282.83C37.2162 283.402 36.5507 284.214 36.157 285.162C34.5836 288.948 32.5803 292.741 32.087 296.744C31.8698 298.513 31.9614 300.307 32.3579 302.045C28.6623 293.991 26.7433 285.238 26.731 276.378C26.7302 274.155 26.8538 271.933 27.1013 269.723C27.3058 267.912 27.5896 266.114 27.9525 264.328C29.9333 254.64 34.186 245.56 40.3615 237.833C43.3504 236.203 45.7676 233.698 47.2873 230.654C47.8379 229.559 48.227 228.391 48.4426 227.186C48.1054 227.23 47.7627 227.257 47.4256 227.28C47.3205 227.285 47.21 227.291 47.1049 227.296L47.0653 227.298C46.6948 227.315 46.3273 227.224 46.0072 227.037C45.687 226.849 45.4279 226.574 45.2609 226.243C45.0939 225.912 45.0263 225.54 45.066 225.171C45.1058 224.803 45.2513 224.454 45.4851 224.166C45.6306 223.987 45.7763 223.808 45.9221 223.629C46.1432 223.353 46.3698 223.083 46.5909 222.807C46.6164 222.78 46.6404 222.753 46.6628 222.724C46.9171 222.409 47.1713 222.1 47.4256 221.785C46.9614 221.065 46.3372 220.462 45.6015 220.023C43.0534 218.532 39.5379 219.565 37.6973 221.868C35.8512 224.17 35.503 227.401 36.1441 230.278C36.7746 232.726 37.8176 235.049 39.2284 237.148C39.0902 237.325 38.9465 237.496 38.8083 237.672C36.2823 240.918 34.0806 244.402 32.235 248.076C32.6838 243.96 32.1481 239.796 30.672 235.927C29.1759 232.322 26.3717 229.285 23.9023 226.168C20.9361 222.424 14.8538 224.058 14.3312 228.804C14.3261 228.85 14.3212 228.896 14.3164 228.942C14.6832 229.148 15.0422 229.368 15.3935 229.6C15.8348 229.895 16.1768 230.315 16.3746 230.808C16.5724 231.3 16.6168 231.84 16.502 232.358C16.3872 232.875 16.1185 233.346 15.7312 233.709C15.3439 234.071 14.856 234.309 14.3314 234.389L14.2777 234.398C14.4084 235.718 14.6394 237.027 14.9686 238.313C15.9228 241.902 17.6088 245.256 19.9211 248.164C22.2333 251.072 25.1219 253.471 28.4058 255.211C28.6213 255.321 28.8314 255.432 29.047 255.537C27.1927 260.787 26.0295 266.256 25.5868 271.805C25.3362 275.08 25.351 278.369 25.631 281.64L25.6144 281.524C24.9069 277.886 22.9643 274.604 20.1147 272.231C15.8823 268.757 9.9027 267.478 5.33671 264.686C4.85146 264.375 4.28723 264.209 3.71057 264.207C3.13391 264.206 2.56887 264.369 2.0821 264.678C1.59533 264.987 1.20714 265.428 0.963296 265.951C0.719453 266.473 0.63014 267.053 0.705886 267.625C0.71201 267.665 0.718228 267.706 0.724552 267.747C1.4052 268.023 2.06792 268.343 2.70887 268.702C3.07566 268.909 3.4347 269.128 3.78599 269.36C4.22731 269.655 4.56928 270.076 4.76708 270.568C4.96487 271.06 5.00926 271.6 4.89446 272.118C4.77966 272.635 4.511 273.106 4.12369 273.469C3.73638 273.832 3.24849 274.069 2.72392 274.15L2.67017 274.158C2.63147 274.163 2.59832 274.169 2.55968 274.174C3.72267 276.949 5.35496 279.502 7.38506 281.723C9.89293 284.412 12.924 286.56 16.2925 288.037C19.6609 289.513 23.2958 290.287 26.9742 290.31H26.9797C27.9782 294.645 29.425 298.865 31.2966 302.901H46.7181C46.7734 302.73 46.8231 302.553 46.8729 302.382C45.4454 302.472 44.0123 302.386 42.6057 302.128C43.7499 300.725 44.894 299.312 46.0382 297.909C46.0637 297.883 46.0877 297.855 46.11 297.826C46.6904 297.108 47.2763 296.396 47.8567 295.678L47.857 295.677C47.8879 293.477 47.6352 291.281 47.105 289.145L47.1045 289.145Z" fill="#F2F2F2"/>
<path d="M274.461 289.145C274.064 289.163 273.67 289.059 273.333 288.846C272.997 288.633 272.734 288.322 272.581 287.955C272.427 287.588 272.39 287.183 272.475 286.794C272.559 286.405 272.762 286.052 273.054 285.782C273.103 285.587 273.138 285.448 273.187 285.253C273.169 285.211 273.152 285.169 273.134 285.127C272.733 284.181 272.062 283.375 271.204 282.809C270.346 282.243 269.34 281.944 268.312 281.948C267.284 281.951 266.28 282.259 265.427 282.83C264.573 283.402 263.908 284.214 263.514 285.162C261.94 288.948 259.937 292.741 259.444 296.744C259.227 298.513 259.318 300.307 259.715 302.045C256.019 293.991 254.1 285.238 254.088 276.378C254.087 274.155 254.211 271.933 254.458 269.723C254.663 267.912 254.947 266.114 255.309 264.328C257.29 254.64 261.543 245.56 267.718 237.833C270.707 236.203 273.125 233.698 274.644 230.654C275.195 229.559 275.584 228.391 275.8 227.186C275.462 227.23 275.12 227.257 274.783 227.28C274.677 227.285 274.567 227.291 274.462 227.296L274.422 227.298C274.052 227.315 273.684 227.224 273.364 227.037C273.044 226.849 272.785 226.574 272.618 226.243C272.451 225.912 272.383 225.54 272.423 225.171C272.463 224.803 272.608 224.454 272.842 224.166C272.988 223.987 273.133 223.808 273.279 223.629C273.5 223.353 273.727 223.083 273.948 222.807C273.973 222.78 273.997 222.753 274.02 222.724C274.274 222.409 274.528 222.1 274.782 221.785C274.318 221.065 273.694 220.462 272.958 220.023C270.41 218.532 266.895 219.565 265.054 221.868C263.208 224.17 262.86 227.401 263.501 230.278C264.132 232.726 265.175 235.049 266.585 237.148C266.447 237.325 266.303 237.496 266.165 237.672C263.639 240.918 261.438 244.402 259.592 248.076C260.041 243.96 259.505 239.796 258.029 235.927C256.533 232.322 253.729 229.285 251.259 226.168C248.293 222.424 242.211 224.058 241.688 228.804C241.683 228.85 241.678 228.896 241.673 228.942C242.04 229.148 242.399 229.368 242.75 229.6C243.192 229.895 243.534 230.315 243.731 230.808C243.929 231.3 243.974 231.84 243.859 232.358C243.744 232.875 243.475 233.346 243.088 233.709C242.701 234.071 242.213 234.309 241.688 234.389L241.635 234.398C241.765 235.718 241.996 237.027 242.326 238.313C243.28 241.902 244.966 245.256 247.278 248.164C249.59 251.072 252.479 253.471 255.763 255.211C255.978 255.321 256.188 255.432 256.404 255.537C254.55 260.787 253.386 266.256 252.944 271.805C252.693 275.08 252.708 278.369 252.988 281.64L252.971 281.524C252.264 277.886 250.321 274.604 247.472 272.231C243.239 268.757 237.26 267.478 232.694 264.686C232.208 264.375 231.644 264.209 231.067 264.207C230.491 264.206 229.926 264.369 229.439 264.678C228.952 264.987 228.564 265.428 228.32 265.951C228.076 266.473 227.987 267.053 228.063 267.625C228.069 267.665 228.075 267.706 228.081 267.747C228.762 268.023 229.425 268.343 230.066 268.702C230.433 268.909 230.792 269.128 231.143 269.36C231.584 269.655 231.926 270.076 232.124 270.568C232.322 271.06 232.366 271.6 232.251 272.118C232.137 272.635 231.868 273.106 231.481 273.469C231.093 273.832 230.605 274.069 230.081 274.15L230.027 274.158C229.988 274.163 229.955 274.169 229.917 274.174C231.08 276.949 232.712 279.502 234.742 281.723C237.25 284.412 240.281 286.56 243.649 288.037C247.018 289.513 250.653 290.287 254.331 290.31H254.337C255.335 294.645 256.782 298.865 258.654 302.901H274.075C274.13 302.73 274.18 302.553 274.23 302.382C272.802 302.472 271.369 302.386 269.963 302.128C271.107 300.725 272.251 299.312 273.395 297.909C273.421 297.883 273.445 297.855 273.467 297.826C274.047 297.108 274.633 296.396 275.214 295.678L275.214 295.677C275.245 293.477 274.992 291.281 274.462 289.145L274.461 289.145Z" fill="#F2F2F2"/>
<path d="M215.075 302.8C215.031 302.8 214.987 302.799 214.942 302.798C213.814 302.734 212.754 302.237 211.983 301.411C211.212 300.585 210.789 299.494 210.803 298.365C210.803 291.495 205.89 287.487 201.022 286.563C196.153 285.639 190.112 287.567 187.59 293.96L185.298 299.71C183.316 301.685 180.63 302.795 177.83 302.795C175.031 302.795 172.345 301.685 170.363 299.71L170.227 299.574L170.312 299.402L210.803 216.634V214.606C210.747 213.981 210.747 213.352 210.804 212.727L210.803 4.26722C210.803 3.69581 210.917 3.13023 211.14 2.604C211.363 2.07778 211.69 1.60165 212.1 1.20385C212.511 0.80605 212.997 0.494696 213.531 0.288247C214.064 0.0817978 214.633 -0.0155425 215.205 0.00201475C216.333 0.0664562 217.394 0.563213 218.165 1.38889C218.936 2.21456 219.359 3.30555 219.345 4.43476V212.751C219.401 213.376 219.401 214.005 219.344 214.63L219.345 216.634L259.92 299.574L259.785 299.71C257.802 301.685 255.117 302.795 252.317 302.795C249.517 302.795 246.832 301.685 244.85 299.71L244.79 299.619L242.557 293.96C240.036 287.568 233.995 285.641 229.126 286.563C224.257 287.487 219.345 291.495 219.345 298.365V298.533C219.345 299.664 218.895 300.75 218.095 301.55C217.294 302.35 216.208 302.8 215.076 302.8L215.075 302.8Z" fill="#E6E6E6"/>
<path d="M289.194 150.885H140.954C139.23 150.883 137.578 150.198 136.36 148.981C135.141 147.764 134.456 146.113 134.454 144.392V40.8459C134.456 39.1242 135.141 37.4737 136.36 36.2563C137.578 35.039 139.23 34.3542 140.954 34.3523H289.194C290.917 34.3543 292.57 35.0391 293.788 36.2564C295.006 37.4738 295.692 39.1243 295.694 40.8459V144.392C295.692 146.113 295.006 147.764 293.788 148.981C292.569 150.198 290.917 150.883 289.194 150.885Z" fill="white"/>
<path d="M289.195 151.69H140.954C139.017 151.688 137.16 150.919 135.79 149.55C134.42 148.182 133.65 146.327 133.648 144.392V40.8457C133.65 38.9106 134.42 37.0554 135.79 35.687C137.16 34.3187 139.017 33.549 140.954 33.5469H289.195C291.131 33.5491 292.988 34.3188 294.358 35.6871C295.728 37.0554 296.498 38.9106 296.5 40.8457V144.392C296.498 146.327 295.727 148.182 294.358 149.55C292.988 150.919 291.131 151.688 289.195 151.69ZM140.954 35.1578C139.444 35.1595 137.997 35.7593 136.93 36.8256C135.862 37.8919 135.262 39.3377 135.26 40.8457V144.392C135.262 145.9 135.862 147.346 136.93 148.412C137.997 149.478 139.444 150.078 140.954 150.079H289.195C290.704 150.078 292.151 149.478 293.218 148.412C294.286 147.345 294.886 145.9 294.888 144.392V40.8457C294.886 39.3377 294.286 37.8919 293.218 36.8256C292.151 35.7593 290.704 35.1595 289.195 35.1578H140.954Z" fill="#F2F2F2"/>
<path d="M236.992 40.8262H193.156C190.377 40.8231 187.712 39.7187 185.747 37.7554C183.782 35.792 182.676 33.1301 182.673 30.3535V30.1631H247.474V30.3535C247.471 33.1301 246.366 35.792 244.401 37.7554C242.435 39.7187 239.771 40.8231 236.992 40.8262Z" fill="#E6E6E6"/>
<path d="M237.182 157.359H193.347C190.567 157.356 187.903 156.252 185.938 154.289C183.973 152.325 182.867 149.663 182.864 146.887V146.696H247.665V146.887C247.662 149.663 246.556 152.325 244.591 154.289C242.626 156.252 239.962 157.356 237.182 157.359Z" fill="#E6E6E6"/>
<path d="M295.941 303.333C295.941 303.417 295.925 303.501 295.893 303.578C295.861 303.656 295.814 303.726 295.754 303.786C295.695 303.845 295.624 303.892 295.546 303.924C295.469 303.956 295.385 303.973 295.301 303.972H1.13961C0.969976 303.972 0.807303 303.905 0.687353 303.785C0.567403 303.665 0.5 303.503 0.5 303.333C0.5 303.164 0.567403 303.001 0.687353 302.881C0.807303 302.762 0.969976 302.694 1.13961 302.694H295.301C295.385 302.694 295.469 302.71 295.546 302.742C295.624 302.774 295.695 302.822 295.754 302.881C295.813 302.94 295.861 303.011 295.893 303.088C295.925 303.166 295.941 303.249 295.941 303.333Z" fill="#CCCCCC"/>
<path d="M99.5622 288.458H107.311L110.997 258.599L99.5605 258.599L99.5622 288.458Z" fill="#9E616A"/>
<path d="M96.938 284.64L109.187 283.909V289.152L120.832 297.187C121.407 297.584 121.841 298.154 122.069 298.814C122.296 299.475 122.307 300.19 122.099 300.857C121.891 301.524 121.475 302.107 120.912 302.52C120.349 302.934 119.668 303.157 118.969 303.157H104.387L101.873 297.971L100.892 303.157H95.3936L96.938 284.64Z" fill="#2F2E41"/>
<path d="M73.2096 122.375L72.4507 125.988L71.8052 139.319L97.7357 135.812L99.7271 120.375L96.9746 115.857L73.2096 122.375Z" fill="#9E616A"/>
<path d="M60.3476 288.458H68.096L71.7821 258.599L60.3459 258.599L60.3476 288.458Z" fill="#9E616A"/>
<path d="M56.144 235.706L56.1437 235.626L59.0442 222.098L60.8327 215.363L55.8612 175.933C54.6907 147.286 71.326 133.515 71.4569 133.38L71.8177 133.005L98.4963 132.353C112.851 140.945 111.226 187.941 113.854 219.902C114.042 222.181 116.397 225.545 115.818 227.713C111.225 244.911 112.57 263.509 109.071 264.059L98.3421 263.91L92.8009 238.785L97.9159 219.622C95.6474 219.204 94.0797 208.124 94.0797 208.124C93.0912 206.952 89.6787 196.978 89.6787 196.978L85.1286 169.372L77.8182 216.855L79.5787 227.994L78.1218 231.824L71.8825 263.445L71.8162 263.955L60.053 262.781L56.144 235.706Z" fill="#2F2E41"/>
<path d="M57.7237 284.64L69.9725 283.909V289.152L81.6178 297.187C82.193 297.584 82.6262 298.154 82.8542 298.814C83.0821 299.475 83.0929 300.19 82.8849 300.857C82.6768 301.524 82.2609 302.107 81.6979 302.52C81.1349 302.934 80.4541 303.157 79.7551 303.157H65.1724L62.6589 297.971L61.6775 303.157H56.1792L57.7237 284.64Z" fill="#2F2E41"/>
<path d="M94.6025 70.241L101.143 77.501L108.998 92.2935L105.139 110.534L106.826 119.093L109.318 128.502C99.7185 133.807 88.3159 126.481 77.8406 123.227L67.5337 127.776L68.0787 115.253L68.3582 83.6995C68.3689 82.4876 68.6289 81.2908 69.1219 80.1835C69.6149 79.0761 70.3305 78.0818 71.2242 77.2623C72.1179 76.4428 73.1707 75.8155 74.3171 75.4195C75.4636 75.0234 76.6793 74.867 77.8889 74.96L84.7923 69.8779L94.6025 70.241Z" fill="#36397A"/>
<path d="M94.6025 70.241L101.143 77.501L108.998 92.2935L105.139 110.534L106.826 119.093L109.318 128.502C99.7185 133.807 88.3159 126.481 77.8406 123.227L67.5337 127.776L68.0787 115.253L68.3582 83.6995C68.3689 82.4876 68.6289 81.2908 69.1219 80.1835C69.6149 79.0761 70.3305 78.0818 71.2242 77.2623C72.1179 76.4428 73.1707 75.8155 74.3171 75.4195C75.4636 75.0234 76.6793 74.867 77.8889 74.96L84.7923 69.8779L94.6025 70.241Z" fill="black" fill-opacity="0.2"/>
<path d="M92.7707 66.4409C100.387 66.4409 106.561 60.2725 106.561 52.6633C106.561 45.0542 100.387 38.8857 92.7707 38.8857C85.1544 38.8857 78.9802 45.0542 78.9802 52.6633C78.9802 60.2725 85.1544 66.4409 92.7707 66.4409Z" fill="#9E616A"/>
<path d="M108.998 47.6913C108.755 49.0413 102.95 49.6928 103.124 47.291C101.995 49.5523 100.307 52.8338 102.457 56.5927C101.615 57.5091 101.084 58.668 100.941 59.9038C100.798 61.1396 101.05 62.3889 101.661 63.4731C102.272 64.4667 102.785 65.5179 103.191 66.6116C103.273 66.8771 103.331 67.1493 103.366 67.4249C103.4 67.702 103.36 67.9832 103.248 68.2392C103.136 68.4952 102.958 68.7164 102.731 68.8797C102.505 69.043 102.238 69.1424 101.96 69.1674C101.681 69.1924 101.401 69.1422 101.149 69.0219C95.3011 66.1602 85.1029 66.6452 78.7049 68.3912C78.7476 67.1478 78.7305 65.9071 78.6538 64.6693C78.4203 66.2172 77.7953 67.68 76.838 68.9192C75.7425 69.2429 74.6684 69.5793 73.6284 69.9115C73.4698 69.9628 73.3002 69.9702 73.1377 69.9329C72.9753 69.8956 72.8259 69.815 72.7057 69.6997C72.5854 69.5843 72.4987 69.4386 72.4548 69.2779C72.4109 69.1172 72.4114 68.9476 72.4562 68.7872C72.659 68.0522 72.6968 67.2816 72.5671 66.5303C72.3028 64.9717 71.5185 63.5621 70.9644 62.0844C70.4103 60.6068 70.0948 58.9076 70.7726 57.4811C71.8254 55.2667 74.792 54.5896 76.1006 52.5157C77.5712 50.1863 76.4288 47.1501 76.659 44.4034C76.9829 40.5196 80.167 37.3641 83.756 35.8396C89.9706 33.1994 97.7453 35.3375 102.404 40.2177C103.058 39.7769 103.821 39.5256 104.608 39.4918C105.396 39.458 106.178 39.6429 106.867 40.0261C108.244 40.7628 109.233 41.1461 109.851 42.5812C110.392 43.8417 109.245 46.3371 108.998 47.6913Z" fill="#2F2E41"/>
<path d="M103.075 209.71L70.6293 177.295C70.2526 176.918 70.041 176.407 70.041 175.874C70.041 175.341 70.2526 174.83 70.6293 174.453L93.3134 151.79C93.6909 151.414 94.2025 151.202 94.7359 151.202C95.2693 151.202 95.7809 151.414 96.1585 151.79L128.604 184.205C128.98 184.582 129.192 185.093 129.192 185.626C129.192 186.159 128.98 186.67 128.604 187.047L105.92 209.71C105.542 210.086 105.03 210.298 104.497 210.298C103.964 210.298 103.452 210.086 103.075 209.71Z" fill="white"/>
<path d="M104.497 210.834C104.163 210.835 103.831 210.77 103.521 210.642C103.212 210.515 102.931 210.327 102.695 210.09L70.2495 177.675C69.7719 177.197 69.5037 176.549 69.5037 175.874C69.5037 175.199 69.7719 174.551 70.2495 174.073L92.9337 151.41C93.412 150.933 94.0603 150.665 94.7363 150.665C95.4123 150.665 96.0606 150.933 96.5389 151.41L128.984 183.825C129.462 184.303 129.73 184.951 129.73 185.626C129.73 186.301 129.462 186.949 128.984 187.427L106.3 210.09C106.064 210.327 105.783 210.515 105.473 210.642C105.164 210.77 104.832 210.835 104.497 210.834ZM94.7362 151.739C94.5426 151.738 94.3508 151.776 94.1718 151.85C93.9929 151.924 93.8305 152.033 93.694 152.17L71.0095 174.833C70.7336 175.109 70.5786 175.484 70.5786 175.874C70.5786 176.265 70.7336 176.639 71.0095 176.916L103.455 209.33C103.736 209.598 104.109 209.746 104.497 209.746C104.885 209.746 105.259 209.598 105.54 209.33L128.224 186.667C128.5 186.391 128.655 186.016 128.655 185.626C128.655 185.235 128.5 184.861 128.224 184.584L95.7786 152.17C95.642 152.033 95.4795 151.924 95.3006 151.85C95.1216 151.776 94.9298 151.738 94.7362 151.739Z" fill="#E6E6E6"/>
<path d="M90.85 154.805C90.3068 154.111 89.9227 153.306 89.7246 152.447C89.5265 151.588 89.5194 150.696 89.7036 149.834C89.8878 148.972 90.259 148.161 90.7909 147.458C91.3228 146.755 92.0025 146.177 92.7822 145.765L93.2927 91.6299L103.42 96.2731L101.193 148.63C101.799 149.984 101.887 151.514 101.44 152.929C100.993 154.344 100.042 155.546 98.7668 156.307C97.492 157.068 95.9819 157.336 94.5227 157.059C93.0636 156.782 91.7568 155.98 90.85 154.805Z" fill="#9E616A"/>
<path d="M91.123 77.9244C91.123 77.9244 100.975 73.15 102.337 82.1578C103.7 91.1656 109.304 114.61 109.304 114.61L92.2982 113.408L91.123 77.9244Z" fill="#9E616A"/>
<path d="M90.85 154.805C90.3068 154.111 89.9227 153.306 89.7246 152.447C89.5265 151.588 89.5194 150.696 89.7036 149.834C89.8878 148.972 90.259 148.161 90.7909 147.458C91.3228 146.755 92.0025 146.177 92.7822 145.765L93.2927 91.6299L103.42 96.2731L101.193 148.63C101.799 149.984 101.887 151.514 101.44 152.929C100.993 154.344 100.042 155.546 98.7668 156.307C97.492 157.068 95.9819 157.336 94.5227 157.059C93.0636 156.782 91.7568 155.98 90.85 154.805Z" fill="#9E616A"/>
<path d="M91.123 77.9244C91.123 77.9244 100.975 73.15 102.337 82.1578C103.7 91.1656 109.304 114.61 109.304 114.61L92.2982 113.408L91.123 77.9244Z" fill="#36397A"/>
<path d="M91.123 77.9244C91.123 77.9244 100.975 73.15 102.337 82.1578C103.7 91.1656 109.304 114.61 109.304 114.61L92.2982 113.408L91.123 77.9244Z" fill="black" fill-opacity="0.2"/>
</g>
<defs>
<clipPath id="clip0_1626_20061">
<rect width="296" height="305" fill="white" transform="translate(0.5)"/>
</clipPath>
</defs>
</svg>
